<?xml version="1.0" encoding="UTF-8"?>
<!DOCTYPE svg PUBLIC "-//W3C//DTD SVG 1.1//EN" "http://www.w3.org/Graphics/SVG/1.1/DTD/svg11.dtd">
<svg xmlns="http://www.w3.org/2000/svg" version="1.1" width="280px" height="280px" style="shape-rendering:geometricPrecision; text-rendering:geometricPrecision; image-rendering:optimizeQuality; fill-rule:evenodd; clip-rule:evenodd" xmlns:xlink="http://www.w3.org/1999/xlink">
<g><path style="opacity:1" fill="#a72121" d="M 161.5,234.5 C 160.432,233.566 159.099,233.232 157.5,233.5C 196.198,228.3 223.698,207.967 240,172.5C 254.819,129.613 245.986,92.446 213.5,61C 184.138,37.5493 151.471,31.5493 115.5,43C 91.5342,51.9553 73.8675,67.7887 62.5,90.5C 61.8333,89.8333 61.1667,89.1667 60.5,88.5C 76.6434,59.2184 101.31,41.7184 134.5,36C 185.687,31.8337 221.854,53.0003 243,99.5C 257.954,147.55 245.788,187.05 206.5,218C 192.938,227.355 177.938,232.855 161.5,234.5 Z"/></g>
<g><path style="opacity:1" fill="#ed5150" d="M 60.5,88.5 C 61.1667,89.1667 61.8333,89.8333 62.5,90.5C 94.5017,90.3334 126.502,90.5 158.5,91C 159.167,92.3333 159.833,93.6667 160.5,95C 158.9,101.157 157.233,107.323 155.5,113.5C 168.253,113.94 180.92,115.107 193.5,117C 212.516,125.373 220.35,139.873 217,160.5C 215.333,169.5 213.667,178.5 212,187.5C 211.5,188.667 210.667,189.5 209.5,190C 206.833,190.333 204.167,190.667 201.5,191C 194.484,206.829 183.151,210.829 167.5,203C 163.581,199.826 160.914,195.826 159.5,191C 142.823,190.167 126.157,190.334 109.5,191.5C 105.347,203.412 97.014,208.412 84.5,206.5C 80.7573,205.783 77.424,204.116 74.5,201.5C 71.3648,198.192 68.3648,194.692 65.5,191C 61.1126,190.774 56.7793,190.274 52.5,189.5C 49.9682,186.717 50.3015,184.384 53.5,182.5C 56.6085,182.736 59.6085,182.403 62.5,181.5C 64.5,181.5 66.5,181.5 68.5,181.5C 70.7885,170.89 77.4552,165.223 88.5,164.5C 98.9595,165.293 105.96,170.626 109.5,180.5C 116.803,181.497 124.137,181.831 131.5,181.5C 137.026,154.395 143.026,127.395 149.5,100.5C 150.043,100.44 150.376,100.107 150.5,99.5C 119.336,98.1702 88.336,98.1702 57.5,99.5C 57.0293,101.579 56.3627,103.579 55.5,105.5C 54.9569,105.56 54.6236,105.893 54.5,106.5C 61.1335,107.497 67.8002,107.83 74.5,107.5C 77.1402,109.879 77.1402,112.379 74.5,115C 66.9885,115.171 59.6552,115.671 52.5,116.5C 47.4682,114.63 42.1348,113.963 36.5,114.5C 35.0532,113.866 34.3866,112.699 34.5,111C 34.3866,109.301 35.0532,108.134 36.5,107.5C 42.5982,108.117 48.2649,107.45 53.5,105.5C 53.472,103.418 54.1387,101.584 55.5,100C 50.9595,97.9614 49.9595,94.9614 52.5,91C 55.5044,90.8827 58.171,90.0493 60.5,88.5 Z M 153.5,123.5 C 164.877,123.174 176.21,123.674 187.5,125C 200.599,128.768 207.933,137.434 209.5,151C 207.667,160.833 205.833,170.667 204,180.5C 203,181.833 202,181.833 201,180.5C 197.832,170.501 190.998,165.168 180.5,164.5C 169.828,165.339 162.828,170.839 159.5,181C 153.175,181.5 146.842,181.666 140.5,181.5C 144.833,162.167 149.167,142.833 153.5,123.5 Z M 88.5,173.5 C 99.3061,175.778 102.806,182.111 99,192.5C 93.2766,198.991 87.1099,199.658 80.5,194.5C 74.0813,184.093 76.748,177.093 88.5,173.5 Z M 179.5,173.5 C 191.19,175.881 194.69,182.547 190,193.5C 183.667,200.167 177.333,200.167 171,193.5C 166.464,183.581 169.297,176.914 179.5,173.5 Z"/></g>
<g><path style="opacity:1" fill="#411616" d="M 57.5,99.5 C 88.336,98.1702 119.336,98.1702 150.5,99.5C 150.376,100.107 150.043,100.44 149.5,100.5C 119.005,99.5019 88.3379,99.1685 57.5,99.5 Z"/></g>
<g><path style="opacity:1" fill="#782828" d="M 53.5,105.5 C 48.2649,107.45 42.5982,108.117 36.5,107.5C 42.0655,106.793 47.7322,106.126 53.5,105.5 Z"/></g>
<g><path style="opacity:1" fill="#792828" d="M 55.5,105.5 C 61.8333,106.167 68.1667,106.833 74.5,107.5C 67.8002,107.83 61.1335,107.497 54.5,106.5C 54.6236,105.893 54.9569,105.56 55.5,105.5 Z"/></g>
<g><path style="opacity:1" fill="#b23230" d="M 36.5,114.5 C 42.1348,113.963 47.4682,114.63 52.5,116.5C 52.3259,118.861 51.9926,121.194 51.5,123.5C 50.6618,123.842 50.3284,124.508 50.5,125.5C 50.1667,125.5 49.8333,125.5 49.5,125.5C 49.4595,122.119 49.7929,118.786 50.5,115.5C 45.6367,115.819 40.97,115.486 36.5,114.5 Z"/></g>
<g><path style="opacity:1" fill="#6b2323" d="M 51.5,123.5 C 51.5,126.167 51.5,128.833 51.5,131.5C 59.3516,131.175 67.0182,131.508 74.5,132.5C 66.5,132.5 58.5,132.5 50.5,132.5C 50.5,130.167 50.5,127.833 50.5,125.5C 50.3284,124.508 50.6618,123.842 51.5,123.5 Z"/></g>
<g><path style="opacity:1" fill="#f05151" d="M 49.5,125.5 C 49.8333,125.5 50.1667,125.5 50.5,125.5C 50.5,127.833 50.5,130.167 50.5,132.5C 58.5,132.5 66.5,132.5 74.5,132.5C 75.9468,133.134 76.6134,134.301 76.5,136C 76.6134,137.699 75.9468,138.866 74.5,139.5C 66.5,139.5 58.5,139.5 50.5,139.5C 50.7678,141.099 50.4345,142.432 49.5,143.5C 49.5,142.5 49.5,141.5 49.5,140.5C 42.4921,140.666 35.4921,140.5 28.5,140C 24.5681,137.379 24.5681,134.713 28.5,132C 35.4921,131.5 42.4921,131.334 49.5,131.5C 49.5,129.5 49.5,127.5 49.5,125.5 Z"/></g>
<g><path style="opacity:1" fill="#b03635" d="M 74.5,139.5 C 67.0182,140.492 59.3516,140.825 51.5,140.5C 51.5,142.5 51.5,144.5 51.5,146.5C 50.5655,147.568 50.2322,148.901 50.5,150.5C 49.5318,148.393 49.1984,146.059 49.5,143.5C 50.4345,142.432 50.7678,141.099 50.5,139.5C 58.5,139.5 66.5,139.5 74.5,139.5 Z"/></g>
<g><path style="opacity:1" fill="#792828" d="M 50.5,153.5 C 51.4345,154.568 51.7678,155.901 51.5,157.5C 41.1667,157.5 30.8333,157.5 20.5,157.5C 30.3194,156.506 40.3194,156.173 50.5,156.5C 50.5,155.5 50.5,154.5 50.5,153.5 Z"/></g>
<g><path style="opacity:1" fill="#ed4f4f" d="M 51.5,146.5 C 52.0587,149.516 52.7254,152.516 53.5,155.5C 60.4764,156.331 67.4764,156.831 74.5,157C 77.1402,159.621 77.1402,162.121 74.5,164.5C 68.1667,164.5 61.8333,164.5 55.5,164.5C 55.7373,165.791 55.404,166.791 54.5,167.5C 43.4149,165.72 32.0815,164.886 20.5,165C 16.5239,162.32 16.5239,159.82 20.5,157.5C 30.8333,157.5 41.1667,157.5 51.5,157.5C 51.7678,155.901 51.4345,154.568 50.5,153.5C 50.5,152.5 50.5,151.5 50.5,150.5C 50.2322,148.901 50.5655,147.568 51.5,146.5 Z"/></g>
<g><path style="opacity:1" fill="#ae2c2b" d="M 74.5,164.5 C 68.69,165.49 62.69,165.823 56.5,165.5C 57.9084,171.059 59.9084,176.392 62.5,181.5C 59.6085,182.403 56.6085,182.736 53.5,182.5C 55.3691,181.835 57.3691,181.169 59.5,180.5C 57.536,176.246 55.8693,171.912 54.5,167.5C 55.404,166.791 55.7373,165.791 55.5,164.5C 61.8333,164.5 68.1667,164.5 74.5,164.5 Z"/></g>
<g><path style="opacity:1" fill="#a52120" d="M 74.5,201.5 C 77.424,204.116 80.7573,205.783 84.5,206.5C 83.7611,206.369 83.0944,206.536 82.5,207C 103.77,226.036 128.77,234.87 157.5,233.5C 159.099,233.232 160.432,233.566 161.5,234.5C 130.077,238.192 102.743,229.359 79.5,208C 77.9456,205.713 76.2789,203.546 74.5,201.5 Z"/></g>
</svg>
