<?xml version="1.0" standalone="no"?>
<!DOCTYPE svg PUBLIC "-//W3C//DTD SVG 20010904//EN"
 "http://www.w3.org/TR/2001/REC-SVG-20010904/DTD/svg10.dtd">
<svg version="1.0" xmlns="http://www.w3.org/2000/svg"
 width="700.000000pt" height="700.000000pt" viewBox="0 0 700.000000 700.000000"
 preserveAspectRatio="xMidYMid meet">
<metadata>
Created by potrace 1.14, written by Peter Selinger 2001-2017
</metadata>
<g transform="translate(0.000000,700.000000) scale(0.100000,-0.100000)"
fill="#000000" stroke="none">
<path d="M3715 6114 c-5 -1 -86 -5 -180 -8 -191 -5 -192 -6 -365 -47 -592
-141 -1064 -443 -1423 -911 -67 -87 -151 -214 -205 -309 -27 -48 -40 -60 -85
-79 -28 -13 -68 -25 -87 -27 -48 -7 -69 -20 -80 -49 -26 -66 1 -130 71 -171
25 -15 27 -19 14 -33 -18 -20 -43 -91 -38 -106 3 -10 -37 -18 -152 -29 -234
-23 -282 -33 -304 -61 -39 -49 -12 -138 46 -148 11 -3 43 -8 70 -12 26 -5 51
-9 56 -10 4 -1 52 -2 107 -3 l100 -1 -5 -27 c-9 -50 -18 -186 -18 -279 l1 -90
-202 -3 c-110 -1 -217 -4 -236 -5 -19 -2 -48 -4 -64 -5 -39 -1 -96 -62 -96
-102 0 -42 46 -89 96 -98 40 -8 183 -13 394 -15 l105 -1 1 -80 c0 -44 6 -105
14 -135 12 -49 13 -70 11 -157 l-1 -28 -243 -1 c-133 0 -285 -4 -337 -8 -52
-5 -111 -9 -131 -11 -62 -4 -109 -46 -109 -99 0 -25 51 -85 73 -87 7 -1 59 -2
117 -4 129 -4 355 -15 395 -20 17 -2 57 -7 91 -10 33 -3 71 -8 85 -10 13 -2
46 -7 73 -10 85 -10 90 -13 104 -58 7 -23 33 -95 59 -159 25 -65 44 -121 41
-124 -4 -3 -12 -7 -20 -8 -32 -5 -125 -41 -145 -55 -35 -25 -47 -64 -33 -105
6 -19 17 -39 24 -46 8 -6 74 -18 147 -26 74 -9 148 -18 164 -20 23 -4 43 -21
83 -72 28 -37 79 -96 112 -132 34 -36 88 -101 122 -145 66 -87 132 -148 278
-259 299 -226 653 -386 995 -452 22 -4 47 -9 55 -10 8 -2 38 -6 65 -10 28 -3
52 -7 55 -9 24 -14 409 -21 525 -10 250 24 361 41 473 71 32 8 66 17 76 19 91
20 336 118 462 186 179 95 262 154 429 303 430 387 704 825 820 1311 26 109
31 134 40 210 4 28 10 77 15 110 8 63 5 432 -5 525 -3 30 -9 78 -15 105 -5 28
-12 66 -14 85 -46 300 -117 503 -269 770 -224 393 -530 721 -864 929 -276 171
-621 293 -953 336 -99 13 -119 15 -235 21 -66 3 -124 7 -130 8 -5 2 -14 2 -20
0z m260 -58 c39 -4 93 -11 120 -16 28 -5 64 -11 80 -14 262 -39 624 -185 900
-364 238 -154 351 -258 559 -513 22 -27 153 -211 178 -249 136 -215 250 -493
307 -750 23 -100 25 -112 47 -295 6 -56 6 -373 -1 -420 -2 -16 -7 -55 -10 -85
-14 -147 -76 -421 -131 -588 -62 -188 -226 -470 -398 -686 -74 -94 -235 -262
-316 -331 -242 -205 -552 -373 -875 -473 -97 -30 -259 -72 -300 -77 -11 -1
-33 -5 -50 -8 -16 -3 -48 -10 -70 -14 -80 -15 -577 -5 -605 12 -4 2 -24 6 -46
9 -21 3 -50 8 -64 11 -14 3 -38 8 -55 10 -172 30 -430 123 -635 228 -83 43
-334 201 -366 231 -7 6 -48 40 -92 76 -45 36 -80 70 -78 75 2 6 48 9 122 7
187 -5 286 29 390 132 59 60 126 164 139 219 4 15 12 27 19 28 154 15 433 23
751 23 477 -1 505 -3 505 -40 0 -31 74 -156 124 -209 119 -126 402 -192 566
-132 125 45 228 144 311 298 38 71 45 79 73 81 173 8 217 28 231 105 2 15 13
75 24 133 11 58 23 121 26 140 6 31 23 125 40 215 38 203 46 266 49 375 2 85
-21 231 -49 317 -73 217 -229 390 -464 512 -82 43 -93 46 -166 56 -22 3 -51 8
-65 10 -14 2 -50 7 -80 10 -30 3 -72 8 -94 11 -21 3 -59 7 -85 9 -25 2 -73 6
-106 9 -126 12 -169 15 -303 22 -75 3 -138 7 -140 9 -2 1 19 85 47 186 80 296
77 269 48 326 l-26 50 -258 3 c-142 1 -680 3 -1195 4 -560 1 -938 5 -938 10 0
14 77 152 138 246 263 407 654 726 1114 909 191 76 465 136 716 157 42 4 78 7
79 8 6 5 295 -2 358 -8z m-2222 -1541 c20 1 40 5 43 8 4 4 12 3 18 0 19 -12
36 -12 36 0 0 8 3 8 8 2 4 -7 132 -11 352 -11 330 -1 1054 -12 1265 -19 55 -2
138 -4 184 -4 68 -1 82 -4 78 -15 -9 -23 -142 -589 -202 -856 -17 -76 -157
-721 -160 -740 -3 -14 -8 -36 -11 -50 -3 -14 -7 -36 -10 -50 -3 -13 -12 -56
-20 -95 -9 -38 -17 -79 -20 -90 -7 -33 -24 -128 -24 -133 0 -7 -418 6 -460 14
-31 6 -44 8 -85 13 -6 0 -17 17 -24 37 -18 49 -74 142 -108 179 -206 221 -546
238 -758 39 -55 -52 -115 -168 -141 -270 -1 -7 -30 -11 -79 -10 l-76 1 -36 80
c-30 68 -114 307 -110 311 1 1 76 4 167 8 252 9 283 15 310 59 26 42 25 76 -2
117 -20 29 -30 34 -68 36 -278 15 -369 22 -434 32 l-49 7 -24 100 c-22 90 -27
143 -24 241 l1 31 138 0 c182 -1 346 11 351 24 2 8 6 7 11 -1 5 -8 13 -9 21
-4 8 5 22 7 33 5 10 -1 29 8 42 20 33 31 34 106 1 137 -24 23 -73 32 -96 17
-10 -5 -12 -4 -7 3 5 8 -5 12 -31 13 -21 1 -58 3 -83 5 -25 3 -121 6 -214 7
l-170 2 1 90 c1 50 7 134 14 188 12 94 13 97 38 98 14 0 35 2 46 4 38 7 275
23 435 28 38 2 47 6 67 36 13 19 23 48 23 65 0 39 -39 90 -71 92 -13 0 -53 4
-89 8 -36 4 -83 9 -105 11 -22 2 -60 6 -85 9 -25 3 -72 8 -105 11 -33 4 -61 8
-62 9 -1 1 8 33 22 71 15 43 31 71 42 75 10 3 64 6 121 5 57 -1 105 2 108 7 3
5 11 5 17 0 7 -5 29 -8 50 -7z m2572 -610 c72 -4 146 -8 165 -10 194 -18 189
-17 256 -40 188 -64 327 -183 409 -350 69 -140 90 -249 69 -351 -8 -36 -16
-82 -19 -102 -3 -20 -9 -55 -15 -77 -5 -22 -9 -42 -10 -45 -1 -13 -14 -90 -25
-147 -3 -16 -12 -64 -20 -108 -8 -44 -17 -91 -20 -105 -3 -14 -8 -40 -11 -58
-13 -67 -71 -57 -95 16 -14 45 -52 115 -86 160 -112 149 -326 226 -513 184
-181 -40 -320 -155 -394 -326 -26 -59 -36 -71 -56 -73 -64 -6 -415 -13 -430
-8 -15 5 -12 25 27 193 23 103 45 201 49 217 3 17 14 68 25 115 11 47 22 96
25 110 3 14 9 41 14 60 5 19 11 46 14 60 10 54 25 121 60 275 20 88 49 216 64
285 l28 125 35 5 c44 7 286 4 454 -5z m-2032 -1266 c86 -28 154 -81 188 -147
25 -47 28 -61 25 -135 -5 -128 -23 -173 -91 -227 -105 -84 -211 -97 -321 -42
-73 37 -85 50 -125 135 -87 186 -27 331 169 412 71 30 77 30 155 4z m2278 -1
c105 -35 171 -85 205 -156 26 -55 27 -156 2 -239 -24 -82 -67 -131 -152 -173
-101 -51 -187 -39 -288 38 -52 41 -64 56 -84 110 -68 181 -16 324 148 407 39
19 78 35 87 35 10 0 46 -10 82 -22z"/>
</g>
</svg>
